<svg width="36" height="37" viewBox="0 0 36 37" fill="none" xmlns="http://www.w3.org/2000/svg">
<path d="M13.6033 0.779999C12.5955 0.779999 11.7357 1.43852 11.4095 2.34H7.53389C7.45443 2.31909 7.37216 2.31086 7.29014 2.31562C7.26538 2.32254 7.24097 2.33067 7.21701 2.34H2.68326C1.40019 2.34 0.343262 3.39692 0.343262 4.68V31.98C0.343262 33.2631 1.40019 34.32 2.68326 34.32H16.7233C16.7233 35.6031 17.7802 36.66 19.0633 36.66H33.1033C34.3863 36.66 35.4433 35.6031 35.4433 34.32V16.38C35.4433 15.0969 34.3863 14.04 33.1033 14.04H26.8633V4.68C26.8633 3.39692 25.8063 2.34 24.5233 2.34H15.797C15.4708 1.43852 14.611 0.779999 13.6033 0.779999ZM13.6033 2.34C13.9924 2.34 14.2922 2.60789 14.3589 2.97375C14.3405 3.07038 14.3405 3.16962 14.3589 3.26625C14.2922 3.63211 13.9924 3.9 13.6033 3.9C13.188 3.9 12.8587 3.59699 12.8233 3.19312C12.8244 3.16876 12.8244 3.14436 12.8233 3.12C12.8233 2.67998 13.1632 2.34 13.6033 2.34ZM2.68326 3.9H6.58326V6.24C6.58326 7.52307 7.64019 8.58 8.92326 8.58H18.2833C19.5663 8.58 20.6233 7.52307 20.6233 6.24V3.9H24.5233C24.964 3.9 25.3033 4.23927 25.3033 4.68V14.04H19.0633C17.7802 14.04 16.7233 15.0969 16.7233 16.38V32.76H2.68326C2.24254 32.76 1.90326 32.4207 1.90326 31.98V4.68C1.90326 4.23927 2.24254 3.9 2.68326 3.9ZM8.14326 3.9H11.4095C11.7357 4.80148 12.5955 5.46 13.6033 5.46C14.611 5.46 15.4708 4.80148 15.797 3.9H19.0633V6.24C19.0633 6.68072 18.724 7.02 18.2833 7.02H8.92326C8.48254 7.02 8.14326 6.68072 8.14326 6.24V3.9ZM8.92326 11.7V16.38H7.36326V14.04H5.80326V16.38H4.24326V17.94H15.1633V16.38H13.6033V13.26H12.0433V16.38H10.4833V11.7H8.92326ZM19.0633 15.6H25.937H26.2539H33.1033C33.544 15.6 33.8833 15.9393 33.8833 16.38V34.32C33.8833 34.7607 33.544 35.1 33.1033 35.1H19.0633C18.6225 35.1 18.2833 34.7607 18.2833 34.32V33.6862C18.3049 33.5817 18.3049 33.4739 18.2833 33.3694V16.38C18.2833 15.9393 18.6225 15.6 19.0633 15.6ZM20.477 17.16C20.2964 17.1945 20.1337 17.2916 20.0178 17.4343C19.9018 17.5771 19.84 17.7561 19.8433 17.94V21.06C19.8433 21.2669 19.9255 21.4652 20.0717 21.6115C20.218 21.7578 20.4164 21.84 20.6233 21.84H31.5433C31.7501 21.84 31.9485 21.7578 32.0948 21.6115C32.2411 21.4652 32.3232 21.2669 32.3233 21.06V17.94C32.3232 17.7331 32.2411 17.5347 32.0948 17.3885C31.9485 17.2422 31.7501 17.16 31.5433 17.16H20.6233C20.5989 17.1589 20.5745 17.1589 20.5501 17.16C20.5258 17.1589 20.5014 17.1589 20.477 17.16ZM21.4033 18.72H30.7633V20.28H21.4033V18.72ZM8.92326 21.06C6.34781 21.06 4.24326 23.1645 4.24326 25.74C4.24326 28.3154 6.34781 30.42 8.92326 30.42C11.4987 30.42 13.6033 28.3154 13.6033 25.74C13.6033 23.1645 11.4987 21.06 8.92326 21.06ZM8.92326 22.62V25.74H12.0433C12.0433 27.4724 10.6556 28.86 8.92326 28.86C7.1909 28.86 5.80326 27.4724 5.80326 25.74C5.80326 24.0076 7.1909 22.62 8.92326 22.62ZM20.6233 23.4C20.1927 23.4 19.8433 23.7494 19.8433 24.18V24.96C19.8433 25.3906 20.1927 25.74 20.6233 25.74H22.1833C22.6138 25.74 22.9633 25.3906 22.9633 24.96V24.18C22.9633 23.7494 22.6138 23.4 22.1833 23.4H20.6233ZM25.3033 23.4C24.8727 23.4 24.5233 23.7494 24.5233 24.18V24.96C24.5233 25.3906 24.8727 25.74 25.3033 25.74H26.8633C27.2938 25.74 27.6433 25.3906 27.6433 24.96V24.18C27.6433 23.7494 27.2938 23.4 26.8633 23.4H25.3033ZM29.9833 23.4C29.5527 23.4 29.2033 23.7494 29.2033 24.18V24.96C29.2033 25.3906 29.5527 25.74 29.9833 25.74H31.5433C31.9738 25.74 32.3233 25.3906 32.3233 24.96V24.18C32.3233 23.7494 31.9738 23.4 31.5433 23.4H29.9833ZM20.6233 27.3C20.1927 27.3 19.8433 27.6494 19.8433 28.08V28.86C19.8433 29.2906 20.1927 29.64 20.6233 29.64H22.1833C22.6138 29.64 22.9633 29.2906 22.9633 28.86V28.08C22.9633 27.6494 22.6138 27.3 22.1833 27.3H20.6233ZM25.3033 27.3C24.8727 27.3 24.5233 27.6494 24.5233 28.08V28.86C24.5233 29.2906 24.8727 29.64 25.3033 29.64H26.8633C27.2938 29.64 27.6433 29.2906 27.6433 28.86V28.08C27.6433 27.6494 27.2938 27.3 26.8633 27.3H25.3033ZM29.9833 27.3C29.5527 27.3 29.2033 27.6494 29.2033 28.08V28.86C29.2033 29.2906 29.5527 29.64 29.9833 29.64H31.5433C31.9738 29.64 32.3233 29.2906 32.3233 28.86V28.08C32.3233 27.6494 31.9738 27.3 31.5433 27.3H29.9833ZM20.6233 31.2C20.1927 31.2 19.8433 31.5494 19.8433 31.98V32.76C19.8433 33.1906 20.1927 33.54 20.6233 33.54H22.1833C22.6138 33.54 22.9633 33.1906 22.9633 32.76V31.98C22.9633 31.5494 22.6138 31.2 22.1833 31.2H20.6233ZM25.3033 31.2C24.8727 31.2 24.5233 31.5494 24.5233 31.98V32.76C24.5233 33.1906 24.8727 33.54 25.3033 33.54H26.8633C27.2938 33.54 27.6433 33.1906 27.6433 32.76V31.98C27.6433 31.5494 27.2938 31.2 26.8633 31.2H25.3033ZM29.9833 31.2C29.5527 31.2 29.2033 31.5494 29.2033 31.98V32.76C29.2033 33.1906 29.5527 33.54 29.9833 33.54H31.5433C31.9738 33.54 32.3233 33.1906 32.3233 32.76V31.98C32.3233 31.5494 31.9738 31.2 31.5433 31.2H29.9833Z" fill="#BFBFBF"/>
</svg>
