<svg width="35" height="34" viewBox="0 0 35 34" fill="none" xmlns="http://www.w3.org/2000/svg">
	<path d="M31.3788 28.9854V27.1997C31.3788 26.9745 31.2895 26.7585 31.1304 26.5992C30.9713 26.4398 30.7554 26.3501 30.5302 26.3497V14.4503C30.6418 14.4503 30.7524 14.4284 30.8555 14.3856C30.9586 14.3429 31.0523 14.2803 31.1312 14.2014C31.2101 14.1225 31.2727 14.0287 31.3155 13.9256C31.3582 13.8225 31.3801 13.712 31.3801 13.6003V11.9003H32.6517C33.6331 11.9003 34.4591 11.2482 34.7101 10.2767C34.9644 9.28059 34.5414 8.28913 33.6563 7.80503L20.8146 0.77921C19.8854 0.267899 18.8421 -0.000213623 17.7815 -0.000213623C16.7209 -0.000213623 15.6776 0.267899 14.7484 0.77921L1.912 7.80437C1.02556 8.28913 0.601932 9.28191 0.856243 10.2767C1.10458 11.2476 1.93059 11.9003 2.91463 11.9003H4.18419V13.6003C4.18419 13.8255 4.27355 14.0415 4.43266 14.2009C4.59176 14.3603 4.8076 14.45 5.03278 14.4503V26.3497C4.80737 26.3497 4.59119 26.4393 4.4318 26.5987C4.27241 26.7581 4.18286 26.9743 4.18286 27.1997V28.9854C3.22374 29.1826 2.36192 29.7045 1.74265 30.463C1.12338 31.2216 0.784527 32.1705 0.783203 33.1498L0.783203 33.9998H34.7798V33.1498C34.7784 32.1703 34.4394 31.2213 33.8199 30.4627C33.2003 29.7041 32.3382 29.1824 31.3788 28.9854ZM5.88137 28.0498H10.9802V28.8998H5.88402L5.88137 28.0498ZM11.8301 26.3497V14.4503C11.9417 14.4503 12.0522 14.4284 12.1554 14.3856C12.2585 14.3429 12.3522 14.2803 12.4311 14.2014C12.51 14.1225 12.5726 14.0287 12.6153 13.9256C12.658 13.8225 12.68 13.712 12.68 13.6003V11.9003H13.5319V13.6003C13.5319 13.712 13.5539 13.8225 13.5966 13.9256C13.6393 14.0287 13.7019 14.1225 13.7809 14.2014C13.8598 14.2803 13.9535 14.3429 14.0566 14.3856C14.1597 14.4284 14.2702 14.4503 14.3818 14.4503V26.3497C14.1564 26.3497 13.9403 26.4393 13.7809 26.5987C13.6215 26.7581 13.5319 26.9743 13.5319 27.1997V28.8998H12.682V27.1997C12.682 26.9744 12.5926 26.7583 12.4333 26.5989C12.2741 26.4396 12.0581 26.3499 11.8328 26.3497H11.8301ZM16.0797 26.3497V14.4503H19.4793V26.3497H16.0797ZM20.3313 12.7497H15.2318V11.8997H20.3313V12.7497ZM15.2318 28.0498H20.3313V28.8998H15.2318V28.0498ZM21.1805 26.3497V14.4503C21.2921 14.4503 21.4026 14.4284 21.5058 14.3856C21.6089 14.3429 21.7026 14.2803 21.7815 14.2014C21.8604 14.1225 21.923 14.0287 21.9657 13.9256C22.0084 13.8225 22.0304 13.712 22.0304 13.6003V11.9003H22.8803V13.6003C22.8803 13.712 22.9023 13.8225 22.945 13.9256C22.9877 14.0287 23.0503 14.1225 23.1293 14.2014C23.2082 14.2803 23.3019 14.3429 23.405 14.3856C23.5081 14.4284 23.6186 14.4503 23.7302 14.4503V26.3497C23.5048 26.3497 23.2887 26.4393 23.1293 26.5987C22.9699 26.7581 22.8803 26.9743 22.8803 27.1997V28.8998H22.0311V27.1997C22.0311 26.9743 21.9415 26.7581 21.7822 26.5987C21.6228 26.4393 21.4066 26.3497 21.1812 26.3497H21.1805ZM24.5802 28.0498H29.679V28.8998H24.5802V28.0498ZM28.8297 26.3497H25.4301V14.4503H28.8297V26.3497ZM29.6797 12.7497H24.5802V11.8997H29.679L29.6797 12.7497ZM2.91198 10.2003C2.6331 10.2003 2.53615 9.9845 2.50295 9.85567C2.47971 9.76536 2.42792 9.45723 2.72606 9.29652L15.5644 2.2707C16.2436 1.89657 17.0064 1.70037 17.7818 1.70037C18.5572 1.70037 19.3201 1.89657 19.9993 2.2707L32.837 9.29652C33.1351 9.45922 33.0833 9.76536 33.0601 9.85567C33.0275 9.9845 32.9273 10.2003 32.651 10.2003H2.91198ZM10.9829 11.9003V12.7497H5.88402V11.8997L10.9829 11.9003ZM6.73327 14.4503H10.1329V26.3497H6.73327V14.4503ZM2.62978 32.2998C2.80598 31.8031 3.13152 31.3731 3.56174 31.0687C3.99197 30.7643 4.5058 30.6005 5.03278 30.5998H30.5302C31.0573 30.6004 31.5713 30.7641 32.0017 31.0685C32.432 31.3729 32.7577 31.803 32.9339 32.2998H2.62978ZM17.7815 8.49964C18.2858 8.49964 18.7788 8.35009 19.1981 8.06989C19.6174 7.78969 19.9442 7.39143 20.1372 6.92548C20.3301 6.45952 20.3806 5.9468 20.2823 5.45215C20.1839 4.95749 19.941 4.50312 19.5844 4.1465C19.2279 3.78987 18.7735 3.54701 18.2789 3.44861C17.7843 3.35022 17.2717 3.40072 16.8058 3.59372C16.3399 3.78673 15.9416 4.11357 15.6615 4.53292C15.3813 4.95227 15.2318 5.44528 15.2318 5.94963C15.2325 6.62572 15.5013 7.27392 15.9793 7.75199C16.4574 8.23005 17.1055 8.49894 17.7815 8.49964ZM17.7815 5.09963C17.9496 5.09963 18.1139 5.14948 18.2537 5.24288C18.3935 5.33628 18.5024 5.46903 18.5667 5.62435C18.6311 5.77966 18.6479 5.95057 18.6151 6.11546C18.5823 6.28034 18.5014 6.4318 18.3825 6.55067C18.2636 6.66955 18.1122 6.7505 17.9473 6.7833C17.7825 6.8161 17.6116 6.79927 17.4563 6.73493C17.301 6.6706 17.1682 6.56165 17.0748 6.42187C16.9814 6.28208 16.9316 6.11774 16.9316 5.94963C16.9319 5.72436 17.0216 5.50843 17.181 5.34921C17.3403 5.18998 17.5563 5.10046 17.7815 5.10029V5.09963Z" fill="#BFBFBF"/>
</svg>
