<svg width="32" height="32" viewBox="0 0 32 32" fill="none" xmlns="http://www.w3.org/2000/svg">
<path d="M25.6997 0.416687H5.86637C4.36348 0.416687 2.92214 1.01371 1.85944 2.07642C0.796729 3.13912 0.199707 4.58046 0.199707 6.08335V16C0.199707 16.3757 0.348963 16.7361 0.614639 17.0018C0.880316 17.2674 1.24065 17.4167 1.61637 17.4167H8.69971V30.1667C8.69904 30.4376 8.77609 30.7031 8.92172 30.9316C9.06736 31.1601 9.27547 31.342 9.52137 31.4559C9.76786 31.5693 10.0417 31.6096 10.3105 31.5719C10.5792 31.5343 10.8314 31.4202 11.0372 31.2434L15.0747 27.7867L19.1122 31.2434C19.3688 31.4628 19.6954 31.5834 20.033 31.5834C20.3707 31.5834 20.6973 31.4628 20.9539 31.2434L24.9914 27.7867L29.0289 31.2434C29.2855 31.4628 29.6121 31.5834 29.9497 31.5834C30.1547 31.5819 30.3572 31.5385 30.5447 31.4559C30.7906 31.342 30.9987 31.1601 31.1444 30.9316C31.29 30.7031 31.3671 30.4376 31.3664 30.1667V6.08335C31.3664 4.58046 30.7694 3.13912 29.7066 2.07642C28.6439 1.01371 27.2026 0.416687 25.6997 0.416687ZM3.03304 14.5834V6.08335C3.03304 5.33191 3.33155 4.61124 3.8629 4.07988C4.39426 3.54853 5.11493 3.25002 5.86637 3.25002C6.61782 3.25002 7.33849 3.54853 7.86984 4.07988C8.4012 4.61124 8.69971 5.33191 8.69971 6.08335V14.5834H3.03304ZM28.533 27.0925L25.9122 24.84C25.6556 24.6205 25.329 24.4999 24.9914 24.4999C24.6537 24.4999 24.3272 24.6205 24.0705 24.84L20.033 28.2967L15.9955 24.84C15.7389 24.6205 15.4124 24.4999 15.0747 24.4999C14.737 24.4999 14.4105 24.6205 14.1539 24.84L11.533 27.0925V6.08335C11.5313 5.08812 11.2674 4.1109 10.768 3.25002H25.6997C26.4512 3.25002 27.1718 3.54853 27.7032 4.07988C28.2345 4.61124 28.533 5.33191 28.533 6.08335V27.0925ZM25.6997 7.50002C25.6997 7.87574 25.5505 8.23608 25.2848 8.50175C25.0191 8.76743 24.6588 8.91669 24.283 8.91669H15.783C15.4073 8.91669 15.047 8.76743 14.7813 8.50175C14.5156 8.23608 14.3664 7.87574 14.3664 7.50002C14.3664 7.1243 14.5156 6.76396 14.7813 6.49829C15.047 6.23261 15.4073 6.08335 15.783 6.08335H24.283C24.6588 6.08335 25.0191 6.23261 25.2848 6.49829C25.5505 6.76396 25.6997 7.1243 25.6997 7.50002ZM25.6997 13.1667C25.6997 13.5424 25.5505 13.9027 25.2848 14.1684C25.0191 14.4341 24.6588 14.5834 24.283 14.5834H15.783C15.4073 14.5834 15.047 14.4341 14.7813 14.1684C14.5156 13.9027 14.3664 13.5424 14.3664 13.1667C14.3664 12.791 14.5156 12.4306 14.7813 12.165C15.047 11.8993 15.4073 11.75 15.783 11.75H24.283C24.6588 11.75 25.0191 11.8993 25.2848 12.165C25.5505 12.4306 25.6997 12.791 25.6997 13.1667ZM25.6997 18.8334C25.6997 19.2091 25.5505 19.5694 25.2848 19.8351C25.0191 20.1008 24.6588 20.25 24.283 20.25H15.783C15.4073 20.25 15.047 20.1008 14.7813 19.8351C14.5156 19.5694 14.3664 19.2091 14.3664 18.8334C14.3664 18.4576 14.5156 18.0973 14.7813 17.8316C15.047 17.5659 15.4073 17.4167 15.783 17.4167H24.283C24.6588 17.4167 25.0191 17.5659 25.2848 17.8316C25.5505 18.0973 25.6997 18.4576 25.6997 18.8334Z" fill="#BFBFBF"/>
</svg>
