<svg width="33" height="32" viewBox="0 0 33 32" fill="none" xmlns="http://www.w3.org/2000/svg">
<path d="M16.5693 20.0004C18.7785 20.0004 20.5693 18.2095 20.5693 16.0004C20.5693 13.7912 18.7785 12.0004 16.5693 12.0004C14.3602 12.0004 12.5693 13.7912 12.5693 16.0004C12.5693 18.2095 14.3602 20.0004 16.5693 20.0004Z" stroke="#BFBFBF" stroke-width="2.70237" stroke-linecap="round" stroke-linejoin="round"/>
<path d="M26.4362 20.0002C26.2587 20.4024 26.2057 20.8485 26.2842 21.281C26.3626 21.7135 26.5688 22.1127 26.8762 22.4269L26.9562 22.5069C27.2041 22.7546 27.4008 23.0487 27.535 23.3724C27.6692 23.6961 27.7383 24.0431 27.7383 24.3936C27.7383 24.744 27.6692 25.091 27.535 25.4147C27.4008 25.7385 27.2041 26.0326 26.9562 26.2802C26.7085 26.5282 26.4144 26.7249 26.0907 26.8591C25.7669 26.9932 25.4199 27.0623 25.0695 27.0623C24.7191 27.0623 24.3721 26.9932 24.0483 26.8591C23.7246 26.7249 23.4305 26.5282 23.1828 26.2802L23.1028 26.2002C22.7886 25.8928 22.3895 25.6866 21.9569 25.6082C21.5244 25.5298 21.0783 25.5827 20.6762 25.7602C20.2818 25.9292 19.9455 26.2099 19.7086 26.5676C19.4717 26.9253 19.3445 27.3445 19.3428 27.7736V28.0002C19.3428 28.7075 19.0619 29.3857 18.5618 29.8858C18.0617 30.3859 17.3834 30.6669 16.6762 30.6669C15.9689 30.6669 15.2906 30.3859 14.7905 29.8858C14.2904 29.3857 14.0095 28.7075 14.0095 28.0002V27.8802C13.9992 27.4389 13.8563 27.0109 13.5995 26.6518C13.3427 26.2928 12.9838 26.0193 12.5695 25.8669C12.1673 25.6894 11.7212 25.6365 11.2887 25.7149C10.8562 25.7933 10.4571 25.9995 10.1428 26.3069L10.0628 26.3869C9.81517 26.6348 9.52107 26.8315 9.19734 26.9657C8.87361 27.0999 8.52661 27.169 8.17616 27.169C7.82572 27.169 7.47872 27.0999 7.15499 26.9657C6.83126 26.8315 6.53716 26.6348 6.2895 26.3869C6.04156 26.1392 5.84487 25.8451 5.71067 25.5214C5.57647 25.1977 5.5074 24.8507 5.5074 24.5002C5.5074 24.1498 5.57647 23.8028 5.71067 23.4791C5.84487 23.1553 6.04156 22.8612 6.2895 22.6136L6.3695 22.5336C6.67688 22.2193 6.88308 21.8202 6.9615 21.3877C7.03993 20.9551 6.98699 20.509 6.8095 20.1069C6.64048 19.7125 6.35984 19.3762 6.00212 19.1393C5.6444 18.9024 5.22521 18.7753 4.79617 18.7736H4.5695C3.86225 18.7736 3.18398 18.4926 2.68388 17.9925C2.18378 17.4924 1.90283 16.8141 1.90283 16.1069C1.90283 15.3996 2.18378 14.7214 2.68388 14.2213C3.18398 13.7212 3.86225 13.4402 4.5695 13.4402H4.6895C5.13082 13.4299 5.55884 13.287 5.9179 13.0302C6.27696 12.7734 6.55045 12.4145 6.70283 12.0002C6.88032 11.5981 6.93326 11.152 6.85484 10.7194C6.77641 10.2869 6.57021 9.8878 6.26283 9.57356L6.18283 9.49356C5.93489 9.2459 5.7382 8.95179 5.60401 8.62806C5.46981 8.30434 5.40073 7.95733 5.40073 7.60689C5.40073 7.25645 5.46981 6.90944 5.60401 6.58572C5.7382 6.26199 5.93489 5.96789 6.18283 5.72022C6.43049 5.47229 6.7246 5.2756 7.04832 5.1414C7.37205 5.0072 7.71906 4.93813 8.0695 4.93813C8.41994 4.93813 8.76694 5.0072 9.09067 5.1414C9.4144 5.2756 9.7085 5.47229 9.95616 5.72022L10.0362 5.80022C10.3504 6.10761 10.7495 6.3138 11.182 6.39223C11.6146 6.47066 12.0607 6.41771 12.4628 6.24022H12.5695C12.9639 6.07121 13.3002 5.79056 13.5371 5.43284C13.774 5.07512 13.9011 4.65594 13.9028 4.22689V4.00022C13.9028 3.29298 14.1838 2.6147 14.6839 2.11461C15.184 1.61451 15.8623 1.33356 16.5695 1.33356C17.2767 1.33356 17.955 1.61451 18.4551 2.11461C18.9552 2.6147 19.2362 3.29298 19.2362 4.00022V4.12022C19.2379 4.54927 19.365 4.96846 19.6019 5.32618C19.8388 5.6839 20.1751 5.96454 20.5695 6.13356C20.9717 6.31104 21.4178 6.36399 21.8503 6.28556C22.2828 6.20714 22.6819 6.00094 22.9962 5.69356L23.0762 5.61356C23.3238 5.36562 23.6179 5.16893 23.9417 5.03473C24.2654 4.90053 24.6124 4.83146 24.9628 4.83146C25.3133 4.83146 25.6603 4.90053 25.984 5.03473C26.3077 5.16893 26.6018 5.36562 26.8495 5.61356C27.0974 5.86122 27.2941 6.15532 27.4283 6.47905C27.5625 6.80278 27.6316 7.14978 27.6316 7.50022C27.6316 7.85067 27.5625 8.19767 27.4283 8.5214C27.2941 8.84513 27.0974 9.13923 26.8495 9.38689L26.7695 9.46689C26.4621 9.78113 26.2559 10.1802 26.1775 10.6128C26.0991 11.0453 26.152 11.4914 26.3295 11.8936V12.0002C26.4985 12.3946 26.7792 12.7309 27.1369 12.9678C27.4946 13.2047 27.9138 13.3318 28.3428 13.3336H28.5695C29.2767 13.3336 29.955 13.6145 30.4551 14.1146C30.9552 14.6147 31.2362 15.293 31.2362 16.0002C31.2362 16.7075 30.9552 17.3857 30.4551 17.8858C29.955 18.3859 29.2767 18.6669 28.5695 18.6669H28.4495C28.0204 18.6686 27.6013 18.7957 27.2435 19.0326C26.8858 19.2695 26.6052 19.6059 26.4362 20.0002V20.0002Z" stroke="#BFBFBF" stroke-width="2.70237" stroke-linecap="round" stroke-linejoin="round"/>
</svg>
