<svg width="32" height="34" viewBox="0 0 32 34" fill="none" xmlns="http://www.w3.org/2000/svg">
<path d="M7.7832 5.125H4.5332C3.67125 5.125 2.8446 5.46741 2.23511 6.0769C1.62561 6.6864 1.2832 7.51305 1.2832 8.375V27.875C1.2832 28.737 1.62561 29.5636 2.23511 30.1731C2.8446 30.7826 3.67125 31.125 4.5332 31.125H13.7908" stroke="#BFBFBF" stroke-width="2" stroke-linecap="round" stroke-linejoin="round"/>
<path d="M24.0332 19.75V26.25H30.5332" stroke="#BFBFBF" stroke-width="2" stroke-linecap="round" stroke-linejoin="round"/>
<path d="M24.0332 14.875V8.375C24.0332 7.51305 23.6908 6.6864 23.0813 6.0769C22.4718 5.46741 21.6452 5.125 20.7832 5.125H17.5332" stroke="#BFBFBF" stroke-width="2" stroke-linecap="round" stroke-linejoin="round"/>
<path d="M14.2832 1.875H11.0332C9.23828 1.875 7.7832 3.33007 7.7832 5.125C7.7832 6.91993 9.23828 8.375 11.0332 8.375H14.2832C16.0781 8.375 17.5332 6.91993 17.5332 5.125C17.5332 3.33007 16.0781 1.875 14.2832 1.875Z" stroke="#BFBFBF" stroke-width="2" stroke-linecap="round" stroke-linejoin="round"/>
<path d="M24.0332 32.75C27.6231 32.75 30.5332 29.8399 30.5332 26.25C30.5332 22.6601 27.6231 19.75 24.0332 19.75C20.4434 19.75 17.5332 22.6601 17.5332 26.25C17.5332 29.8399 20.4434 32.75 24.0332 32.75Z" stroke="#BFBFBF" stroke-width="2" stroke-linecap="round" stroke-linejoin="round"/>
<path d="M7.7832 14.875H14.2832" stroke="#BFBFBF" stroke-width="2" stroke-linecap="round" stroke-linejoin="round"/>
<path d="M7.7832 21.375H12.6582" stroke="#BFBFBF" stroke-width="2" stroke-linecap="round" stroke-linejoin="round"/>
</svg>
