<svg width="34" height="35" viewBox="0 0 34 35" fill="none" xmlns="http://www.w3.org/2000/svg">
<path d="M29.75 16.344V10.4166C29.75 10.0409 29.6008 9.68058 29.3351 9.4149C29.0694 9.14923 28.7091 8.99997 28.3334 8.99997H5.66669C5.29096 8.99997 4.93063 8.85072 4.66495 8.58504C4.39928 8.31936 4.25002 7.95903 4.25002 7.58331C4.25002 7.20758 4.39928 6.84725 4.66495 6.58157C4.93063 6.31589 5.29096 6.16664 5.66669 6.16664H28.3334C28.7091 6.16664 29.0694 6.01738 29.3351 5.75171C29.6008 5.48603 29.75 5.1257 29.75 4.74997C29.75 4.37425 29.6008 4.01391 29.3351 3.74824C29.0694 3.48256 28.7091 3.33331 28.3334 3.33331H5.66669C4.53952 3.33331 3.45851 3.78107 2.66148 4.5781C1.86445 5.37513 1.41669 6.45614 1.41669 7.58331V27.4166C1.41669 28.5438 1.86445 29.6248 2.66148 30.4218C3.45851 31.2189 4.53952 31.6666 5.66669 31.6666H28.3334C28.7091 31.6666 29.0694 31.5174 29.3351 31.2517C29.6008 30.986 29.75 30.6257 29.75 30.25V24.3226C30.5781 24.0341 31.2959 23.4951 31.8039 22.7803C32.3118 22.0654 32.5847 21.2102 32.5847 20.3333C32.5847 19.4564 32.3118 18.6012 31.8039 17.8864C31.2959 17.1715 30.5781 16.6325 29.75 16.344ZM26.9167 28.8333H5.66669C5.29096 28.8333 4.93063 28.6841 4.66495 28.4184C4.39928 28.1527 4.25002 27.7924 4.25002 27.4166V11.5726C4.70372 11.7404 5.18298 11.8286 5.66669 11.8333H26.9167V16.0833H22.6667C21.5395 16.0833 20.4585 16.5311 19.6615 17.3281C18.8645 18.1251 18.4167 19.2061 18.4167 20.3333C18.4167 21.4605 18.8645 22.5415 19.6615 23.3385C20.4585 24.1355 21.5395 24.5833 22.6667 24.5833H26.9167V28.8333ZM28.3334 21.75H22.6667C22.291 21.75 21.9306 21.6007 21.665 21.335C21.3993 21.0694 21.25 20.709 21.25 20.3333C21.25 19.9576 21.3993 19.5972 21.665 19.3316C21.9306 19.0659 22.291 18.9166 22.6667 18.9166H28.3334C28.7091 18.9166 29.0694 19.0659 29.3351 19.3316C29.6008 19.5972 29.75 19.9576 29.75 20.3333C29.75 20.709 29.6008 21.0694 29.3351 21.335C29.0694 21.6007 28.7091 21.75 28.3334 21.75Z" fill="#BFBFBF"/>
</svg>
